<svg width="26" height="26" viewBox="0 0 26 26" fill="none" xmlns="http://www.w3.org/2000/svg">
<path fill-rule="evenodd" clip-rule="evenodd" d="M1.28919 24.5937C0.900634 24.2012 0.903826 23.568 1.29632 23.1795L23.2964 1.40021C23.6889 1.01166 24.3221 1.01485 24.7106 1.40734C25.0992 1.79983 25.096 2.43298 24.7035 2.82153L2.70339 24.6008C2.3109 24.9893 1.67774 24.9862 1.28919 24.5937Z" fill="#231F20"/>
<path fill-rule="evenodd" clip-rule="evenodd" d="M24.7107 24.5933C24.3221 24.9858 23.689 24.989 23.2965 24.6004L1.29634 2.82123C0.903849 2.43268 0.900655 1.79952 1.28921 1.40704C1.67776 1.01455 2.31091 1.01135 2.70341 1.3999L24.7036 23.1791C25.096 23.5676 25.0992 24.2008 24.7107 24.5933Z" fill="#231F20"/>
</svg>
