<svg width="26" height="23" viewBox="0 0 26 23" fill="none" xmlns="http://www.w3.org/2000/svg">
<path fill-rule="evenodd" clip-rule="evenodd" d="M0 6.8392C0 3.02764 3.19381 0 7.0558 0C9.54101 0 11.7423 1.24875 13.0014 3.15404C14.2606 1.25147 16.4604 0.00442111 18.9436 0.00442111C22.8062 0.00442111 26 3.03261 26 6.84362C26 7.32281 25.9485 7.79084 25.8519 8.24218L25.8518 8.24253C25.6831 9.02925 25.3755 9.76425 24.957 10.4235C24.9176 10.534 24.858 10.6393 24.7778 10.734L24.4476 11.1238C24.4136 11.1649 24.379 11.2057 24.344 11.246C24.2908 11.3073 24.2318 11.3606 24.1684 11.4057L14.0702 22.5213L14.0701 22.5215C13.4954 23.1538 12.5075 23.1653 11.9225 22.5212L1.79486 11.3738C1.74545 11.3351 1.69899 11.2911 1.65628 11.2419C1.58838 11.1638 1.52223 11.0841 1.45789 11.0029L1.23725 10.7601C1.13677 10.6495 1.0657 10.5225 1.02356 10.3888C0.614517 9.73701 0.313684 9.01215 0.147618 8.23756L0.147543 8.23721C0.0507586 7.78497 0 7.31749 0 6.8392ZM2.98718 9.71196L12.9964 20.729L23.0705 9.6399C23.4691 9.10213 23.7541 8.48622 23.8962 7.82328C23.964 7.50656 24 7.17891 24 6.84362C24 4.20532 21.771 2.00442 18.9436 2.00442C16.6168 2.00442 14.6845 3.50282 14.0838 5.50463C13.955 5.9338 13.5565 6.22491 13.1085 6.21705L12.8565 6.21263C12.4215 6.20499 12.0414 5.91702 11.9162 5.50036C11.315 3.49792 9.38265 2 7.0558 2C4.22899 2 2 4.20034 2 6.8392C2 7.17538 2.03562 7.50248 2.10318 7.81831M13.4023 21.1758C13.4026 21.176 13.4028 21.1763 13.4031 21.1766L13.403 21.1765L13.4023 21.1758ZM2.98718 9.71196C2.55811 9.15658 2.25225 8.51335 2.10326 7.81865Z" fill="#231F20"/>
</svg>
