<svg width="52" height="65" viewBox="0 0 52 65" fill="none" xmlns="http://www.w3.org/2000/svg">
<path d="M51.5559 9.76845C51.2095 9.47189 50.7293 9.37965 50.2949 9.52644C47.0605 10.6209 44.0056 12.1196 41.195 13.9643C42.1202 11.6088 42.6038 9.08062 42.6038 6.47858V5.45898C42.6038 5.03944 42.3937 4.64668 42.0422 4.41013C41.6908 4.17408 41.2438 4.12399 40.8476 4.27673C37.3648 5.62214 34.2516 7.66579 31.6733 10.2222C31.1122 6.77464 29.6084 3.51501 27.3016 0.82222L26.9829 0.450287C26.7385 0.164642 26.379 0 25.9999 0C25.6208 0 25.2613 0.164642 25.017 0.450287L24.6982 0.82222C22.3915 3.51452 20.8886 6.77364 20.327 10.2207C17.7488 7.6643 14.6365 5.62164 11.1548 4.27673C10.7586 4.12399 10.3116 4.17408 9.95965 4.41013C9.60871 4.64668 9.39804 5.03944 9.39804 5.45898V6.47858C9.39804 9.08112 9.88222 11.6103 10.8078 13.9663C7.99628 12.1201 4.94037 10.6214 1.70496 9.52644C1.27106 9.37965 0.790399 9.47189 0.443982 9.76845C0.0970617 10.065 -0.0628233 10.5212 0.0226498 10.9656L0.604872 13.9738C1.68586 19.5612 4.64725 24.6671 8.90883 28.4375H2.8317C2.12076 28.4375 1.54457 29.0058 1.54457 29.707V35.293C1.54457 35.9942 2.12076 36.5625 2.8317 36.5625H3.78497L9.70323 63.9948C9.82943 64.581 10.3543 65 10.9622 65H41.0382C41.6455 65 42.1704 64.581 42.2971 63.9948L48.2154 36.5625H49.1682C49.8791 36.5625 50.4553 35.9942 50.4553 35.293V29.707C50.4553 29.0058 49.8791 28.4375 49.1682 28.4375H43.091C47.3531 24.6666 50.314 19.5612 51.395 13.9738L51.9772 10.9656C52.0632 10.5212 51.9028 10.065 51.5559 9.76845ZM25.9999 3.28838C28.084 6.05854 29.2534 9.41139 29.3384 12.8694C27.998 14.607 26.8728 16.5104 26.0009 18.5396C25.1281 16.5089 24.0024 14.6056 22.662 12.8674C22.7469 9.4104 23.9164 6.05804 25.9999 3.28838ZM24.754 22.7816C24.9014 23.3564 25.4242 23.7387 25.9994 23.7387C26.103 23.7387 26.2086 23.7263 26.3137 23.7006C26.7898 23.583 27.1367 23.2166 27.2493 22.7772C29.0277 16.0596 33.7307 10.4374 40.006 7.41238C39.7762 11.9123 37.8902 16.1107 34.6372 19.3197C34.5699 19.3861 34.512 19.4585 34.4628 19.5344C32.421 21.644 30.6115 23.9847 29.0805 26.5208L27.9236 28.4375H24.0768L22.9199 26.5208C21.3899 23.9862 19.5819 21.648 17.5426 19.5394C17.4928 19.4615 17.434 19.3876 17.3651 19.3197C14.1116 16.1107 12.2257 11.9118 11.9964 7.41238C18.2727 10.4379 22.9767 16.062 24.754 22.7816ZM3.13337 13.4977L2.98203 12.7147C10.3649 15.7204 16.6034 21.0197 20.7076 27.8196L21.0807 28.4375H13.0729C7.91886 24.9711 4.30435 19.5478 3.13337 13.4977ZM47.881 34.0234H47.1857C47.1827 34.0234 47.1797 34.0234 47.1766 34.0234H31.8086C31.0977 34.0234 30.5215 34.5918 30.5215 35.293C30.5215 35.9942 31.0977 36.5625 31.8086 36.5625H45.5833L39.9959 62.4609H12.004L6.41654 36.5625H20.2245C20.9354 36.5625 21.5116 35.9942 21.5116 35.293C21.5116 34.5918 20.9354 34.0234 20.2245 34.0234H4.82372C4.82071 34.0234 4.81719 34.0234 4.81417 34.0234H4.11882V30.9766H12.6908H12.6938H23.3432H23.3462H23.3493H28.6506H28.6536H28.6566H39.3061H39.3101H47.881V34.0234ZM48.8665 13.4977C47.696 19.5478 44.0815 24.9711 38.9275 28.4375H30.9192L31.2922 27.8196C35.3964 21.0202 41.635 15.7209 49.0178 12.7151L48.8665 13.4977Z" fill="#00BF86"/>
<path d="M26.0166 34.0234C25.6782 34.0234 25.3463 34.1593 25.107 34.3954C24.8662 34.6314 24.7294 34.9592 24.7294 35.293C24.7294 35.6267 24.8662 35.9545 25.107 36.1906C25.3463 36.4266 25.6782 36.5625 26.0166 36.5625C26.3554 36.5625 26.6873 36.4266 26.9266 36.1906C27.1664 35.9545 27.3037 35.6267 27.3037 35.293C27.3037 34.9592 27.1664 34.6314 26.9266 34.3954C26.6873 34.1593 26.3554 34.0234 26.0166 34.0234Z" fill="#00BF86"/>
</svg>
