<svg width="80" height="53" viewBox="0 0 80 53" fill="none" xmlns="http://www.w3.org/2000/svg">
<path d="M78.5472 45.1029H74.1483C73.634 49.6044 69.8758 53 65.4098 53C60.9429 53 57.1855 49.6044 56.6708 45.1029H28.2251C27.7095 49.6044 23.9526 53 19.4866 53C15.0197 53 11.2628 49.6044 10.7472 45.1029H1.46599C0.65625 45.1029 0 44.4371 0 43.6156V1.48776C0 0.666253 0.65625 0 1.46599 0H52.3455C53.1543 0 53.811 0.666253 53.811 1.48776V9.83248H66.231C66.7103 9.83388 67.1593 10.0721 67.4332 10.4726L75.4534 22.1197L78.5908 26.5825L79.7347 28.2339C79.9061 28.4824 79.9985 28.778 79.9994 29.0816V43.5713C80.0109 43.9704 79.8633 44.3578 79.5904 44.646C79.3174 44.9346 78.941 45.0991 78.5472 45.1029ZM65.4392 49.5652C68.6777 49.5652 71.3041 46.9012 71.3041 43.6156C71.3041 40.3291 68.6777 37.665 65.4392 37.665C62.1998 37.665 59.5739 40.3291 59.5739 43.6156C59.5739 46.9137 62.1878 49.5993 65.4392 49.6398V49.5652ZM19.516 49.5652C22.755 49.5652 25.3814 46.9012 25.3814 43.6156C25.3814 40.3291 22.755 37.665 19.516 37.665C16.2762 37.665 13.6507 40.3291 13.6507 43.6156C13.6503 46.9137 16.2647 49.5993 19.516 49.6398V49.5652ZM2.96185 2.97506V29.6327H6.66667C7.47641 29.6327 8.13312 30.2984 8.13312 31.1199C8.13312 31.9415 7.47641 32.6077 6.66667 32.6077H2.96185V42.1278H10.7762C11.2918 37.6268 15.0491 34.2316 19.516 34.2316C23.982 34.2316 27.7394 37.6268 28.2545 42.1278H51V9.74343H43C42.1903 9.74343 41.5336 9.07718 41.5336 8.25567C41.5336 7.43416 42.1903 6.7679 43 6.7679H51V2.97506H2.96185ZM65.4682 12.808H53.7384V42.1278H56.6708C57.1855 37.6268 60.9429 34.2316 65.4098 34.2316C69.8758 34.2316 73.634 37.6268 74.1483 42.1278H77.0812V29.5576L76.6414 28.9179L59.466 28.8503C58.6562 28.8503 58 28.185 58 27.3635V16.3557C58 15.5341 58.6562 14.8679 59.466 14.8679L66.964 14.9354L65.4682 12.808ZM69.0164 17.9403H61V25.9727H74.6032L69.0164 17.9403Z" fill="#231F20"/>
</svg>
