<svg width="68" height="64" viewBox="0 0 68 64" fill="none" xmlns="http://www.w3.org/2000/svg">
<path d="M57.6109 16.6665H10.3889C5.02774 16.6665 0.666687 20.9763 0.666687 26.2743V53.7253C0.666687 59.0233 5.02774 63.3332 10.3889 63.3332H57.611C62.972 63.3332 67.3332 59.0234 67.3332 53.7253V26.2743C67.3331 20.9763 62.972 16.6665 57.6109 16.6665ZM64.5554 53.7254C64.5554 57.5081 61.4414 60.5881 57.611 60.5881H10.3889C6.55833 60.5881 3.44454 57.5081 3.44454 53.7254V26.2743C3.44454 22.4916 6.55846 19.4116 10.3889 19.4116H57.611C61.4416 19.4116 64.5554 22.4916 64.5554 26.2743V53.7254Z" fill="#231F20"/>
<path d="M54.8333 36.6489C52.9954 36.6489 51.4999 38.1445 51.4999 39.9823C51.4999 41.8202 52.9954 43.3157 54.8333 43.3157C56.6711 43.3157 58.1667 41.8202 58.1667 39.9823C58.1667 38.1445 56.6711 36.6489 54.8333 36.6489ZM54.8333 41.0935C54.2221 41.0935 53.7221 40.5957 53.7221 39.9823C53.7221 39.369 54.2221 38.8712 54.8333 38.8712C55.4444 38.8712 55.9444 39.369 55.9444 39.9823C55.9444 40.5957 55.4444 41.0935 54.8333 41.0935Z" fill="#231F20"/>
<path d="M65.9443 30.26H54.8333C49.4723 30.26 45.1111 34.6211 45.1111 39.9822C45.1111 45.3433 49.4721 49.7045 54.8333 49.7045H65.9443C66.711 49.7045 67.3333 49.0822 67.3333 48.3155V31.6489C67.3333 30.8823 66.711 30.26 65.9443 30.26ZM64.5555 46.9266H54.8333C51.0027 46.9266 47.8889 43.8099 47.8889 39.9822C47.8889 36.1545 51.0029 33.0379 54.8333 33.0379H64.5555V46.9266Z" fill="#231F20"/>
<path d="M57.4639 17.1381L51.5833 5.37691C50.3972 3.00466 48.35 1.25753 45.8223 0.457531C43.2945 -0.339731 40.6167 -0.0897322 38.2779 1.16586L9.73073 16.5381C9.05574 16.8991 8.803 17.7437 9.1668 18.4187C9.53073 19.0937 10.3751 19.3464 11.0474 18.9826L39.6 3.61585C41.2667 2.71586 43.1861 2.53526 44.9861 3.10752C46.7916 3.67692 48.2527 4.92691 49.1 6.62144L54.9805 18.3825C55.2249 18.8685 55.7139 19.1491 56.2222 19.1491C56.4305 19.1491 56.6416 19.1019 56.8416 19.0019C57.5277 18.6575 57.8055 17.8241 57.4639 17.1381Z" fill="#231F20"/>
<path d="M51.8916 5.99347C51.525 5.31573 50.6806 5.06574 50.0083 5.4268L29.3723 16.5378C28.6973 16.9018 28.4446 17.7434 28.8084 18.4184C29.0584 18.8851 29.5361 19.149 30.0307 19.149C30.2529 19.149 30.4807 19.0963 30.6917 18.9851L51.3277 7.87406C52.0027 7.51013 52.2556 6.66846 51.8916 5.99347Z" fill="#231F20"/>
<path d="M27.3334 7.20459H15.9445C7.52244 7.20459 0.66687 14.0573 0.66687 22.4823V25.26C0.66687 26.0266 1.28913 26.6489 2.0558 26.6489C2.82246 26.6489 3.44472 26.0266 3.44472 25.26V22.4823C3.44472 15.5906 9.05303 9.98231 15.9447 9.98231H27.3334C28.1 9.98231 28.7223 9.36005 28.7223 8.59339C28.7223 7.82672 28.1 7.20459 27.3334 7.20459Z" fill="#231F20"/>
<path d="M52.0556 7.20459C51.2889 7.20459 50.6666 7.82685 50.6666 8.59352C50.6666 9.36018 51.2889 9.98244 52.0556 9.98244C58.9472 9.98244 64.5555 15.5908 64.5555 22.4824V25.2601C64.5555 26.0268 65.1778 26.649 65.9444 26.649C66.7111 26.649 67.3334 26.0268 67.3334 25.2601V22.4824C67.3332 14.0573 60.4777 7.20459 52.0556 7.20459Z" fill="#231F20"/>
</svg>
