<svg width="80" height="80" viewBox="0 0 80 80" fill="none" xmlns="http://www.w3.org/2000/svg">
<path d="M65.5559 17.7684C65.2095 17.4719 64.7293 17.3797 64.2949 17.5264C61.0605 18.6209 58.0056 20.1196 55.195 21.9643C56.1202 19.6088 56.6038 17.0806 56.6038 14.4786V13.459C56.6038 13.0394 56.3937 12.6467 56.0422 12.4101C55.6908 12.1741 55.2438 12.124 54.8476 12.2767C51.3648 13.6221 48.2516 15.6658 45.6733 18.2222C45.1122 14.7746 43.6084 11.515 41.3016 8.82222L40.9829 8.45029C40.7385 8.16464 40.379 8 39.9999 8C39.6208 8 39.2613 8.16464 39.017 8.45029L38.6982 8.82222C36.3915 11.5145 34.8886 14.7736 34.327 18.2207C31.7488 15.6643 28.6365 13.6216 25.1548 12.2767C24.7586 12.124 24.3116 12.1741 23.9597 12.4101C23.6087 12.6467 23.398 13.0394 23.398 13.459V14.4786C23.398 17.0811 23.8822 19.6103 24.8078 21.9663C21.9963 20.1201 18.9404 18.6214 15.705 17.5264C15.2711 17.3797 14.7904 17.4719 14.444 17.7684C14.0971 18.065 13.9372 18.5212 14.0226 18.9656L14.6049 21.9738C15.6859 27.5612 18.6472 32.6671 22.9088 36.4375H16.8317C16.1208 36.4375 15.5446 37.0058 15.5446 37.707V43.293C15.5446 43.9942 16.1208 44.5625 16.8317 44.5625H17.785L23.7032 71.9948C23.8294 72.581 24.3543 73 24.9622 73H55.0382C55.6455 73 56.1704 72.581 56.2971 71.9948L62.2154 44.5625H63.1682C63.8791 44.5625 64.4553 43.9942 64.4553 43.293V37.707C64.4553 37.0058 63.8791 36.4375 63.1682 36.4375H57.091C61.3531 32.6666 64.314 27.5612 65.395 21.9738L65.9772 18.9656C66.0632 18.5212 65.9028 18.065 65.5559 17.7684ZM39.9999 11.2884C42.084 14.0585 43.2534 17.4114 43.3384 20.8694C41.998 22.607 40.8728 24.5104 40.0009 26.5396C39.1281 24.5089 38.0024 22.6056 36.662 20.8674C36.7469 17.4104 37.9164 14.058 39.9999 11.2884ZM38.754 30.7816C38.9014 31.3564 39.4242 31.7387 39.9994 31.7387C40.103 31.7387 40.2086 31.7263 40.3137 31.7006C40.7898 31.583 41.1367 31.2166 41.2493 30.7772C43.0277 24.0596 47.7307 18.4374 54.006 15.4124C53.7762 19.9123 51.8902 24.1107 48.6372 27.3197C48.5699 27.3861 48.512 27.4585 48.4628 27.5344C46.421 29.644 44.6115 31.9847 43.0805 34.5208L41.9236 36.4375H38.0768L36.9199 34.5208C35.3899 31.9862 33.5819 29.648 31.5426 27.5394C31.4928 27.4615 31.434 27.3876 31.3651 27.3197C28.1116 24.1107 26.2257 19.9118 25.9964 15.4124C32.2727 18.4379 36.9767 24.062 38.754 30.7816ZM17.1334 21.4977L16.982 20.7147C24.3649 23.7204 30.6034 29.0197 34.7076 35.8196L35.0807 36.4375H27.0729C21.9189 32.9711 18.3043 27.5478 17.1334 21.4977ZM61.881 42.0234H61.1857C61.1827 42.0234 61.1797 42.0234 61.1766 42.0234H45.8086C45.0977 42.0234 44.5215 42.5918 44.5215 43.293C44.5215 43.9942 45.0977 44.5625 45.8086 44.5625H59.5833L53.9959 70.4609H26.004L20.4165 44.5625H34.2245C34.9354 44.5625 35.5116 43.9942 35.5116 43.293C35.5116 42.5918 34.9354 42.0234 34.2245 42.0234H18.8237C18.8207 42.0234 18.8172 42.0234 18.8142 42.0234H18.1188V38.9766H26.6908H26.6938H37.3432H37.3462H37.3493H42.6506H42.6536H42.6566H53.3061H53.3101H61.881V42.0234ZM62.8665 21.4977C61.696 27.5478 58.0815 32.9711 52.9275 36.4375H44.9192L45.2922 35.8196C49.3964 29.0202 55.635 23.7209 63.0178 20.7151L62.8665 21.4977Z" fill="#00BF86"/>
<path d="M40.0166 42.0234C39.6782 42.0234 39.3463 42.1593 39.107 42.3954C38.8662 42.6314 38.7294 42.9592 38.7294 43.293C38.7294 43.6267 38.8662 43.9545 39.107 44.1906C39.3463 44.4266 39.6782 44.5625 40.0166 44.5625C40.3554 44.5625 40.6873 44.4266 40.9266 44.1906C41.1664 43.9545 41.3037 43.6267 41.3037 43.293C41.3037 42.9592 41.1664 42.6314 40.9266 42.3954C40.6873 42.1593 40.3554 42.0234 40.0166 42.0234Z" fill="#00BF86"/>
</svg>
