<svg width="80" height="80" viewBox="0 0 80 80" fill="none" xmlns="http://www.w3.org/2000/svg">
<g clip-path="url(#clip0_27_82)">
<path d="M78.5472 64.1029H74.1483C73.634 68.6044 69.8758 72 65.4098 72C60.9429 72 57.1855 68.6044 56.6708 64.1029H28.2251C27.7095 68.6044 23.9526 72 19.4866 72C15.0197 72 11.2628 68.6044 10.7472 64.1029H1.46599C0.65625 64.1029 0 63.4371 0 62.6156V20.4878C0 19.6663 0.65625 19 1.46599 19H52.3455C53.1543 19 53.811 19.6663 53.811 20.4878V28.8325H66.231C66.7103 28.8339 67.1593 29.0721 67.4332 29.4726L75.4534 41.1197L78.5908 45.5825L79.7347 47.2339C79.9061 47.4824 79.9985 47.778 79.9994 48.0816V62.5713C80.0109 62.9704 79.8633 63.3578 79.5904 63.646C79.3174 63.9346 78.941 64.0991 78.5472 64.1029ZM65.4392 68.5652C68.6777 68.5652 71.3041 65.9012 71.3041 62.6156C71.3041 59.3291 68.6777 56.665 65.4392 56.665C62.1998 56.665 59.5739 59.3291 59.5739 62.6156C59.5739 65.9137 62.1878 68.5993 65.4392 68.6398V68.5652ZM19.516 68.5652C22.755 68.5652 25.3814 65.9012 25.3814 62.6156C25.3814 59.3291 22.755 56.665 19.516 56.665C16.2762 56.665 13.6507 59.3291 13.6507 62.6156C13.6503 65.9137 16.2647 68.5993 19.516 68.6398V68.5652ZM2.96185 21.9751V48.6327H6.66667C7.47641 48.6327 8.13312 49.2984 8.13312 50.1199C8.13312 50.9415 7.47641 51.6077 6.66667 51.6077H2.96185V61.1278H10.7762C11.2918 56.6268 15.0491 53.2316 19.516 53.2316C23.982 53.2316 27.7394 56.6268 28.2545 61.1278H51V28.7434H43C42.1903 28.7434 41.5336 28.0772 41.5336 27.2557C41.5336 26.4342 42.1903 25.7679 43 25.7679H51V21.9751H2.96185ZM65.4682 31.808H53.7384V61.1278H56.6708C57.1855 56.6268 60.9429 53.2316 65.4098 53.2316C69.8758 53.2316 73.634 56.6268 74.1483 61.1278H77.0812V48.5576L76.6414 47.9179L59.466 47.8503C58.6562 47.8503 58 47.185 58 46.3635V35.3557C58 34.5341 58.6562 33.8679 59.466 33.8679L66.964 33.9354L65.4682 31.808ZM69.0164 36.9403H61V44.9727H74.6032L69.0164 36.9403Z" fill="#231F20"/>
</g>
<defs>
<clipPath id="clip0_27_82">
<rect width="80" height="80" fill="white" transform="matrix(-1 0 0 1 80 0)"/>
</clipPath>
</defs>
</svg>
