<svg width="64" height="64" viewBox="0 0 64 64" fill="none" xmlns="http://www.w3.org/2000/svg">
<path d="M32 0C14.3295 0 0 14.3295 0 32C0 49.6705 14.3295 64 32 64C49.6705 64 64 49.6705 64 32C64 14.3295 49.6705 0 32 0ZM32 61.2529C15.8144 61.2529 2.7471 48.1114 2.7471 32C2.7471 15.8144 15.8886 2.7471 32 2.7471C48.1856 2.7471 61.2529 15.8886 61.2529 32C61.2529 48.1856 48.1856 61.2529 32 61.2529Z" fill="#231F20"/>
<path d="M26.4315 24.2782C25.7633 20.9372 22.7192 18.4871 19.3039 18.4871C15.8144 18.4871 12.7703 20.9372 12.1763 24.4267C12.1021 25.1692 12.5475 25.9117 13.29 26.0601C13.3642 26.0601 13.4385 26.0601 13.5127 26.0601C14.181 26.0601 14.7007 25.6147 14.8492 24.9465C15.2946 22.7933 17.1508 21.2342 19.3039 21.2342C21.4571 21.2342 23.3132 22.7933 23.7587 24.8722C23.9072 25.6147 24.6496 26.0601 25.3921 25.9117C26.1346 25.7632 26.58 25.0207 26.4315 24.2782Z" fill="#231F20"/>
<path d="M51.4524 24.2782C50.7842 20.9372 47.7401 18.4871 44.3248 18.4871C40.8352 18.4871 37.7912 20.9372 37.1972 24.4267C37.1229 25.1692 37.5684 25.9117 38.3109 26.0601C38.3851 26.0601 38.4594 26.0601 38.5336 26.0601C39.2018 26.0601 39.7215 25.6147 39.87 24.9465C40.3155 22.7933 42.1717 21.2342 44.3248 21.2342C46.4779 21.2342 48.3341 22.7933 48.7795 24.8722C48.928 25.6147 49.6705 26.0601 50.413 25.9117C51.1554 25.7632 51.6009 25.0207 51.4524 24.2782Z" fill="#231F20"/>
<path d="M51.1554 34.8213C50.3387 34.5985 49.4478 35.1182 49.2251 35.935C47.5916 42.0231 40.3155 46.4779 31.9258 46.4779C23.536 46.4779 16.2599 42.0231 14.6265 35.935C14.4037 35.1182 13.587 34.5985 12.6961 34.8213C11.8794 35.044 11.3596 35.8607 11.5824 36.7517C13.587 44.1762 22.1253 49.5962 31.8515 49.5962C41.652 49.5962 50.1902 44.1762 52.1206 36.7517C52.4919 35.9349 51.9722 35.044 51.1554 34.8213Z" fill="#231F20"/>
</svg>
