<svg width="80" height="80" viewBox="0 0 80 80" fill="none" xmlns="http://www.w3.org/2000/svg">
<path d="M40 8C22.3295 8 8 22.3295 8 40C8 57.6705 22.3295 72 40 72C57.6705 72 72 57.6705 72 40C72 22.3295 57.6705 8 40 8ZM40 69.2529C23.8144 69.2529 10.7471 56.1114 10.7471 40C10.7471 23.8144 23.8886 10.7471 40 10.7471C56.1856 10.7471 69.2529 23.8886 69.2529 40C69.2529 56.1856 56.1856 69.2529 40 69.2529Z" fill="#231F20"/>
<path d="M34.4315 32.2782C33.7633 28.9372 30.7192 26.4871 27.3039 26.4871C23.8144 26.4871 20.7703 28.9372 20.1763 32.4267C20.1021 33.1692 20.5475 33.9117 21.29 34.0601C21.3642 34.0601 21.4385 34.0601 21.5127 34.0601C22.181 34.0601 22.7007 33.6147 22.8492 32.9465C23.2946 30.7933 25.1508 29.2342 27.3039 29.2342C29.4571 29.2342 31.3132 30.7933 31.7587 32.8722C31.9072 33.6147 32.6496 34.0601 33.3921 33.9117C34.1346 33.7632 34.58 33.0207 34.4315 32.2782Z" fill="#231F20"/>
<path d="M59.4524 32.2782C58.7842 28.9372 55.7401 26.4871 52.3248 26.4871C48.8352 26.4871 45.7912 28.9372 45.1972 32.4267C45.1229 33.1692 45.5684 33.9117 46.3109 34.0601C46.3851 34.0601 46.4594 34.0601 46.5336 34.0601C47.2018 34.0601 47.7215 33.6147 47.87 32.9465C48.3155 30.7933 50.1717 29.2342 52.3248 29.2342C54.4779 29.2342 56.3341 30.7933 56.7795 32.8722C56.928 33.6147 57.6705 34.0601 58.413 33.9117C59.1554 33.7632 59.6009 33.0207 59.4524 32.2782Z" fill="#231F20"/>
<path d="M59.1554 42.8213C58.3387 42.5985 57.4478 43.1182 57.2251 43.935C55.5916 50.0231 48.3155 54.4779 39.9258 54.4779C31.536 54.4779 24.2599 50.0231 22.6265 43.935C22.4037 43.1182 21.587 42.5985 20.6961 42.8213C19.8794 43.044 19.3596 43.8607 19.5824 44.7517C21.587 52.1762 30.1253 57.5962 39.8515 57.5962C49.652 57.5962 58.1902 52.1762 60.1206 44.7517C60.4919 43.9349 59.9722 43.044 59.1554 42.8213Z" fill="#231F20"/>
</svg>
