<svg width="80" height="80" viewBox="0 0 80 80" fill="none" xmlns="http://www.w3.org/2000/svg">
<path d="M63.6109 26.6665H16.3889C11.0277 26.6665 6.66669 30.9763 6.66669 36.2743V63.7253C6.66669 69.0233 11.0277 73.3332 16.3889 73.3332H63.611C68.972 73.3332 73.3332 69.0234 73.3332 63.7253V36.2743C73.3331 30.9763 68.972 26.6665 63.6109 26.6665ZM70.5554 63.7254C70.5554 67.5081 67.4414 70.5881 63.611 70.5881H16.3889C12.5583 70.5881 9.44454 67.5081 9.44454 63.7254V36.2743C9.44454 32.4916 12.5585 29.4116 16.3889 29.4116H63.611C67.4416 29.4116 70.5554 32.4916 70.5554 36.2743V63.7254Z" fill="#231F20"/>
<path d="M60.8333 46.6489C58.9954 46.6489 57.4999 48.1445 57.4999 49.9823C57.4999 51.8202 58.9954 53.3157 60.8333 53.3157C62.6711 53.3157 64.1667 51.8202 64.1667 49.9823C64.1667 48.1445 62.6711 46.6489 60.8333 46.6489ZM60.8333 51.0935C60.2221 51.0935 59.7221 50.5957 59.7221 49.9823C59.7221 49.369 60.2221 48.8712 60.8333 48.8712C61.4444 48.8712 61.9444 49.369 61.9444 49.9823C61.9444 50.5957 61.4444 51.0935 60.8333 51.0935Z" fill="#231F20"/>
<path d="M71.9443 40.26H60.8333C55.4723 40.26 51.1111 44.6211 51.1111 49.9822C51.1111 55.3433 55.4721 59.7045 60.8333 59.7045H71.9443C72.711 59.7045 73.3333 59.0822 73.3333 58.3155V41.6489C73.3333 40.8823 72.711 40.26 71.9443 40.26ZM70.5555 56.9266H60.8333C57.0027 56.9266 53.8889 53.8099 53.8889 49.9822C53.8889 46.1545 57.0029 43.0379 60.8333 43.0379H70.5555V56.9266Z" fill="#231F20"/>
<path d="M63.4639 27.1381L57.5833 15.3769C56.3972 13.0047 54.35 11.2575 51.8223 10.4575C49.2945 9.66027 46.6167 9.91027 44.2779 11.1659L15.7307 26.5381C15.0557 26.8991 14.803 27.7437 15.1668 28.4187C15.5307 29.0937 16.3751 29.3464 17.0474 28.9826L45.6 13.6159C47.2667 12.7159 49.1861 12.5353 50.9861 13.1075C52.7916 13.6769 54.2527 14.9269 55.1 16.6214L60.9805 28.3825C61.2249 28.8685 61.7139 29.1491 62.2222 29.1491C62.4305 29.1491 62.6416 29.1019 62.8416 29.0019C63.5277 28.6575 63.8055 27.8241 63.4639 27.1381Z" fill="#231F20"/>
<path d="M57.8916 15.9935C57.525 15.3157 56.6806 15.0657 56.0083 15.4268L35.3723 26.5378C34.6973 26.9018 34.4446 27.7434 34.8084 28.4184C35.0584 28.8851 35.5361 29.149 36.0307 29.149C36.2529 29.149 36.4807 29.0963 36.6917 28.9851L57.3277 17.8741C58.0027 17.5101 58.2556 16.6685 57.8916 15.9935Z" fill="#231F20"/>
<path d="M33.3334 17.2046H21.9445C13.5224 17.2046 6.66687 24.0573 6.66687 32.4823V35.26C6.66687 36.0266 7.28913 36.6489 8.0558 36.6489C8.82246 36.6489 9.44472 36.0266 9.44472 35.26V32.4823C9.44472 25.5906 15.053 19.9823 21.9447 19.9823H33.3334C34.1 19.9823 34.7223 19.36 34.7223 18.5934C34.7223 17.8267 34.1 17.2046 33.3334 17.2046Z" fill="#231F20"/>
<path d="M58.0556 17.2046C57.2889 17.2046 56.6666 17.8269 56.6666 18.5935C56.6666 19.3602 57.2889 19.9824 58.0556 19.9824C64.9472 19.9824 70.5555 25.5908 70.5555 32.4824V35.2601C70.5555 36.0268 71.1778 36.649 71.9444 36.649C72.7111 36.649 73.3334 36.0268 73.3334 35.2601V32.4824C73.3332 24.0573 66.4777 17.2046 58.0556 17.2046Z" fill="#231F20"/>
</svg>
