<svg width="26" height="24" viewBox="0 0 26 24" fill="none" xmlns="http://www.w3.org/2000/svg">
<path fill-rule="evenodd" clip-rule="evenodd" d="M3.8373 22.9932C3.94429 23.4015 4.23076 24 4.48099 24H21.5188C21.7697 24 22.0567 23.5224 22.1625 23.1212L25.9721 8.4717C26.0797 8.06341 25.8663 8 25.4991 8H0.500118C0.131789 8 -0.0780998 8.21037 0.0271371 8.61156L3.8373 22.9932ZM2.46398 10L5.64317 22H20.3876L23.5082 10H2.46398ZM20.2309 22.6024C20.2292 22.6056 20.2292 22.6066 20.2291 22.6078C20.2291 22.6085 20.2291 22.6092 20.2289 22.6104L20.2309 22.6024Z" fill="#231F20"/>
<path fill-rule="evenodd" clip-rule="evenodd" d="M9.53001 0.152136C9.99835 0.444846 10.1407 1.0618 9.84801 1.53013L4.84801 9.53013C4.5553 9.99847 3.93835 10.1408 3.47001 9.84813C3.00168 9.55542 2.8593 8.93847 3.15201 8.47013L8.15201 0.470135C8.44472 0.00179839 9.06167 -0.140575 9.53001 0.152136Z" fill="#231F20"/>
<path fill-rule="evenodd" clip-rule="evenodd" d="M16.47 0.152136C16.9383 -0.140575 17.5553 0.00179839 17.848 0.470135L22.848 8.47013C23.1407 8.93847 22.9983 9.55542 22.53 9.84813C22.0617 10.1408 21.4447 9.99847 21.152 9.53013L16.152 1.53013C15.8593 1.0618 16.0017 0.444846 16.47 0.152136Z" fill="#231F20"/>
<path fill-rule="evenodd" clip-rule="evenodd" d="M8 12.748C8.55228 12.748 9 13.1958 9 13.748V18.3181C9 18.8704 8.55228 19.3181 8 19.3181C7.44772 19.3181 7 18.8704 7 18.3181V13.748C7 13.1958 7.44772 12.748 8 12.748Z" fill="#231F20"/>
<path fill-rule="evenodd" clip-rule="evenodd" d="M18 12.748C18.5523 12.748 19 13.1958 19 13.748V18.3181C19 18.8704 18.5523 19.3181 18 19.3181C17.4477 19.3181 17 18.8704 17 18.3181V13.748C17 13.1958 17.4477 12.748 18 12.748Z" fill="#231F20"/>
<path fill-rule="evenodd" clip-rule="evenodd" d="M13 12.748C13.5523 12.748 14 13.1958 14 13.748V18.3181C14 18.8704 13.5523 19.3181 13 19.3181C12.4477 19.3181 12 18.8704 12 18.3181V13.748C12 13.1958 12.4477 12.748 13 12.748Z" fill="#231F20"/>
</svg>
